<?xml version="1.0" standalone="no"?>
<!DOCTYPE svg PUBLIC "-//W3C//DTD SVG 20010904//EN"
 "http://www.w3.org/TR/2001/REC-SVG-20010904/DTD/svg10.dtd">
<svg version="1.0" xmlns="http://www.w3.org/2000/svg"
 width="512.000000pt" height="512.000000pt" viewBox="0 0 512.000000 512.000000"
 preserveAspectRatio="xMidYMid meet">
<metadata>
Created by potrace 1.11, written by Peter Selinger 2001-2013
</metadata>
<g transform="translate(0.000000,512.000000) scale(0.100000,-0.100000)"
fill="#000000" stroke="none">
<path d="M1255 4630 c-263 -53 -571 -308 -888 -735 -174 -235 -329 -509 -357
-634 -9 -38 -11 -100 -7 -200 10 -241 50 -356 205 -584 167 -246 184 -283 291
-631 70 -224 112 -317 178 -387 67 -72 139 -104 233 -103 177 2 293 100 361
307 l25 78 26 -38 c69 -104 118 -247 118 -343 0 -172 84 -334 263 -507 342
-331 786 -449 1192 -318 105 34 240 101 340 167 94 63 237 197 301 281 101
135 130 208 144 370 13 145 44 238 118 350 l26 39 21 -68 c56 -180 144 -275
289 -311 113 -27 219 2 300 83 75 74 107 149 226 520 69 216 118 321 207 445
147 201 214 343 238 507 18 115 19 285 4 350 -30 125 -191 406 -372 648 -278
372 -537 598 -787 689 -109 40 -232 41 -310 3 -31 -15 -94 -59 -141 -97 l-87
-69 -128 44 c-235 82 -572 154 -724 154 -152 0 -489 -72 -728 -155 l-126 -44
-56 48 c-157 135 -252 169 -395 141z m144 -347 c25 -21 78 -68 116 -105 71
-68 123 -98 169 -98 13 0 54 16 90 35 175 93 606 205 786 205 178 0 608 -111
778 -201 41 -22 85 -39 98 -39 47 0 96 30 191 119 53 49 111 97 128 107 30 16
35 16 89 -1 219 -69 586 -453 837 -876 108 -183 119 -212 119 -327 -1 -189
-34 -280 -177 -484 -146 -208 -205 -335 -303 -665 -50 -167 -96 -279 -115
-277 -5 0 -17 12 -27 25 -60 81 -71 322 -38 824 26 398 23 477 -29 690 -68
276 -247 733 -318 811 -81 90 -228 54 -264 -65 -15 -51 -8 -77 75 -259 101
-223 190 -492 221 -666 17 -103 19 -217 5 -406 -6 -74 -14 -204 -19 -288 l-9
-153 -99 -102 c-205 -213 -321 -443 -340 -677 -3 -41 -12 -87 -19 -102 -54
-107 -360 -131 -541 -42 -49 24 -114 86 -112 109 0 5 32 25 72 44 84 40 210
161 266 254 140 237 110 391 -95 491 -110 54 -193 69 -374 69 -181 0 -264 -15
-374 -69 -205 -100 -235 -254 -95 -491 56 -93 182 -214 266 -254 40 -19 72
-39 72 -44 2 -23 -63 -85 -112 -109 -181 -89 -487 -65 -541 42 -7 15 -16 62
-20 105 -10 110 -39 215 -90 323 -62 130 -134 231 -250 351 l-98 102 -9 158
c-5 87 -14 219 -19 293 -14 189 -12 293 5 396 31 174 120 443 221 666 83 182
90 208 75 259 -33 111 -162 151 -253 79 -65 -50 -258 -536 -328 -822 -53 -218
-57 -289 -32 -674 12 -186 22 -396 22 -466 0 -201 -27 -354 -69 -392 -18 -16
-20 -16 -40 12 -11 16 -35 74 -51 128 -152 487 -193 581 -344 794 -142 200
-176 293 -176 485 0 114 7 134 106 303 133 227 307 455 479 628 123 124 210
192 304 240 108 54 131 55 190 7z m1322 -2384 c27 -6 49 -16 49 -22 0 -35
-111 -156 -167 -182 -43 -21 -75 -14 -128 28 -59 47 -125 128 -125 154 0 10
50 24 135 37 42 6 177 -3 236 -15z m-91 -901 c68 -38 185 -80 258 -93 24 -4
40 -11 35 -16 -4 -4 -39 -20 -77 -34 -193 -73 -378 -73 -570 -1 -37 14 -72 29
-78 33 -7 3 30 17 80 30 91 23 190 63 247 101 17 11 32 20 35 19 3 -1 34 -19
70 -39z"/>
<path d="M1709 3177 c-134 -71 -145 -254 -21 -341 62 -44 134 -47 208 -10 72
36 104 87 104 164 0 160 -154 259 -291 187z"/>
<path d="M3230 3178 c-99 -53 -138 -173 -88 -268 53 -99 173 -138 268 -88 99
53 138 173 88 268 -53 99 -173 138 -268 88z"/>
</g>
</svg>
